Coordinates
version=1
nRows=43
nColumns=12
inDegrees=yes

Units are S.I. units (second, meters, Newtons, ...)
Angles are in degrees

endheader
time	SC_y	SC_z	SC_x	AC_y	AC_z	AC_x	GH_y	GH_z	GH_yy	EL_x	PS_y
       0.0               -37.4        0.02913          60.84          44.52         -9.812         -1.956          22.35          10.67         -57.64          30.93          21.48
   0.04314               -37.4        0.03239          60.83          44.52         -9.811         -1.953          22.35          10.68         -57.65          30.94           21.5
   0.08628               -37.4        0.03586          60.83          44.52          -9.81         -1.951          22.35          10.69         -57.66          30.95          21.51
    0.1294               -37.4        0.03955          60.83          44.52         -9.809         -1.948          22.35          10.69         -57.67          30.96          21.53
    0.1726               -37.4        0.04349          60.83          44.52         -9.808         -1.945          22.35           10.7         -57.68          30.98          21.54
    0.2157               -37.4        0.04768          60.83          44.53         -9.807         -1.942          22.35          10.71         -57.69          30.99          21.56
    0.2589               -37.4        0.05215          60.83          44.53         -9.805         -1.938          22.35          10.72          -57.7           31.0          21.58
     0.302               -37.4        0.05693          60.82          44.53         -9.804         -1.935          22.35          10.73         -57.71          31.02           21.6
    0.3451               -37.4        0.06206          60.82          44.53         -9.802         -1.931          22.36          10.74         -57.73          31.03          21.62
    0.3883               -37.4        0.06755          60.82          44.54         -9.801         -1.926          22.36          10.75         -57.74          31.05          21.65
    0.4314               -37.4        0.07345          60.82          44.54         -9.799         -1.922          22.36          10.76         -57.76          31.07          21.67
    0.4746               -37.4        0.07981          60.82          44.54         -9.797         -1.917          22.36          10.77         -57.78          31.09           21.7
    0.5177               -37.4        0.08665          60.81          44.55         -9.795         -1.912          22.36          10.78          -57.8          31.11          21.73
    0.5608               -37.4        0.09405          60.81          44.55         -9.793         -1.906          22.36           10.8         -57.82          31.13          21.76
     0.604               -37.4         0.1021          60.81          44.56          -9.79           -1.9          22.36          10.81         -57.84          31.15           21.8
    0.6471               -37.4         0.1107           60.8          44.56         -9.788         -1.893          22.36          10.83         -57.86          31.18          21.84
    0.6903              -37.41         0.1202           60.8          44.57         -9.785         -1.886          22.36          10.85         -57.89          31.21          21.88
    0.7334              -37.41         0.1304          60.79          44.57         -9.782         -1.878          22.36          10.87         -57.92          31.24          21.92
    0.7766              -37.41         0.1417          60.79          44.58         -9.778          -1.87          22.36          10.89         -57.95          31.28          21.97
    0.8197              -37.41          0.154          60.79          44.59         -9.775          -1.86          22.36          10.91         -57.98          31.31          22.02
    0.8628              -37.41         0.1675          60.78          44.59         -9.771          -1.85          22.36          10.94         -58.02          31.35          22.08
     0.906              -37.41         0.1823          60.77           44.6         -9.766         -1.838          22.36          10.97         -58.06           31.4          22.15
    0.9491              -37.41         0.1987          60.77          44.61         -9.761         -1.826          22.36           11.0         -58.11          31.45          22.22
    0.9923              -37.41         0.2169          60.76          44.62         -9.756         -1.812          22.37          11.03         -58.16          31.51           22.3
     1.035              -37.42         0.2371          60.75          44.63          -9.75         -1.796          22.37          11.07         -58.21          31.57          22.39
     1.079              -37.42         0.2596          60.74          44.64         -9.743         -1.779          22.37          11.11         -58.28          31.64          22.48
     1.122              -37.42         0.2849          60.73          44.66         -9.735         -1.759          22.37          11.16         -58.35          31.71          22.59
     1.165              -37.42         0.3133          60.72          44.67         -9.727         -1.738          22.37          11.22         -58.42           31.8          22.72
     1.208              -37.42         0.3454          60.71          44.69         -9.717         -1.713          22.37          11.28         -58.51           31.9          22.86
     1.251              -37.43         0.3818          60.69          44.71         -9.706         -1.685          22.38          11.35         -58.61          32.01          23.02
     1.294              -37.43         0.4234          60.68          44.74         -9.693         -1.653          22.38          11.43         -58.73          32.14           23.2
     1.337              -37.44         0.4712          60.66          44.76         -9.679         -1.616          22.38          11.52         -58.86          32.28          23.41
     1.381              -37.44         0.5263          60.64          44.79         -9.662         -1.574          22.39          11.62         -59.01          32.45          23.65
     1.424              -37.45         0.5903          60.61          44.83         -9.643         -1.525          22.39          11.74         -59.19          32.65          23.92
     1.467              -37.45         0.6653          60.58          44.87          -9.62         -1.467           22.4          11.89          -59.4          32.88          24.25
      1.51              -37.46         0.7536          60.55          44.92         -9.594         -1.399           22.4          12.06         -59.64          33.15          24.63
     1.553              -37.47         0.8586           60.5          44.98         -9.562         -1.319          22.41          12.26         -59.93          33.47          25.09
     1.596              -37.48         0.9844          60.45          45.05         -9.524         -1.222          22.42           12.5         -60.28          33.85          25.64
     1.639              -37.49          1.137          60.39          45.13         -9.478         -1.105          22.43          12.79         -60.71          34.32           26.3
     1.683              -37.51          1.323          60.32          45.24         -9.422        -0.9619          22.44          13.14         -61.22          34.89          27.11
     1.726              -37.53          1.552          60.23          45.37         -9.353        -0.7855          22.45          13.58         -61.86          35.59          28.11
     1.769              -37.55          1.838          60.11          45.52         -9.267        -0.5655          22.47          14.13         -62.65          36.46          29.36
     1.812              -37.58          2.199          59.97          45.73         -9.158        -0.2884           22.5          14.81         -63.65          37.57          30.93
